<svg width="80" height="41" viewBox="0 0 80 41" fill="none" xmlns="http://www.w3.org/2000/svg">
<path d="M31.3119 9.89258C32.4134 8.99266 34.0233 9.05719 35.0521 10.0859L35.2445 10.2988C36.1448 11.4002 36.0807 13.0101 35.0521 14.0391L35.0511 14.04L17.1634 31.9092L17.1644 31.9102C16.1355 32.939 14.5109 33.0028 13.4076 32.1025L13.1937 31.9102L6.12338 24.8389C5.02605 23.7414 5.02596 21.9832 6.12338 20.8857L6.33627 20.6934C7.43774 19.7928 9.04752 19.8569 10.0765 20.8857L15.1869 25.9961L31.098 10.0859L31.3119 9.89258Z" fill="#F4B311" stroke="black" stroke-width="2.25"/>
<path d="M50.8119 9.89258C51.9134 8.99266 53.5233 9.05719 54.5521 10.0859L54.7445 10.2988C55.6448 11.4002 55.5807 13.0101 54.5521 14.0391L54.5511 14.04L36.6634 31.9092L36.6644 31.9102C35.6355 32.939 34.0109 33.0028 32.9076 32.1025L32.6937 31.9102L25.6234 24.8389C24.5261 23.7414 24.526 21.9832 25.6234 20.8857L25.8363 20.6934C26.9377 19.7928 28.5475 19.8569 29.5765 20.8857L34.6869 25.9961L50.598 10.0859L50.8119 9.89258Z" fill="#E71923" stroke="black" stroke-width="2.25"/>
<path d="M70.3119 9.89258C71.4134 8.99266 73.0233 9.05719 74.0521 10.0859L74.2445 10.2988C75.1448 11.4002 75.0807 13.0101 74.0521 14.0391L74.0511 14.04L56.1634 31.9092L56.1644 31.9102C55.1355 32.939 53.5109 33.0028 52.4076 32.1025L52.1937 31.9102L45.1234 24.8389C44.0261 23.7414 44.026 21.9832 45.1234 20.8857L45.3363 20.6934C46.4377 19.7928 48.0475 19.8569 49.0765 20.8857L54.1869 25.9961L70.098 10.0859L70.3119 9.89258Z" fill="white" stroke="black" stroke-width="2.25"/>
</svg>
