<svg width="127" height="46" viewBox="0 0 127 46" fill="none" xmlns="http://www.w3.org/2000/svg">
<path fill-rule="evenodd" clip-rule="evenodd" d="M27.5764 23.0152C27.5672 27.5782 28.9754 32.0314 31.6063 35.7596C32.1454 35.375 32.659 34.9559 33.1439 34.5049C33.6038 34.045 34.169 33.5147 34.5933 32.9851C34.9644 32.4904 35.3007 31.9956 35.654 31.5001C35.5303 31.2883 35.4066 31.0935 35.2829 30.8817C34.9275 30.1629 34.5975 29.432 34.2934 28.6901C33.4624 26.2511 33.1624 23.9003 33.392 21.3369C33.6216 19.3571 34.1171 17.6432 34.9296 15.8575C35.3024 15.1408 35.7034 14.4391 36.1317 13.754C37.3693 11.9861 38.8188 10.5189 40.6037 9.29976C40.6571 9.24643 40.7274 9.21088 40.7808 9.17607C42.0901 8.34145 43.497 7.67083 44.9699 7.17927C46.5956 6.71932 48.1517 6.47195 49.8656 6.43714L50.6966 6.45491C51.5454 6.54305 52.3757 6.63119 53.2067 6.79043C55.2576 7.25037 57.024 7.97473 58.792 9.08867C58.8453 9.01757 58.8979 8.96498 58.9512 8.89388C59.5352 8.17956 60.1485 7.48967 60.7895 6.82598C61.4672 6.17449 62.1751 5.55511 62.9107 4.9699C61.6676 4.07878 60.3416 3.30916 58.9512 2.67165C56.0951 1.38571 52.9979 0.722932 49.8656 0.72744C46.6312 0.72744 43.5553 1.41699 40.7808 2.67165C33.0202 6.15272 27.5764 13.9651 27.5764 23.0152Z" fill="#F4B311"/>
<path fill-rule="evenodd" clip-rule="evenodd" d="M40.7793 35.6709C43.3648 31.9578 44.7468 27.5399 44.7381 23.0153C44.7444 18.5072 43.3755 14.1044 40.8141 10.3946L40.7793 10.4301C40.2477 10.7975 39.7453 11.2053 39.2765 11.65C38.7995 12.127 38.2514 12.6573 37.827 13.1876C37.4389 13.6646 37.1019 14.1771 36.7494 14.6719C37.3678 15.768 37.8626 16.899 38.287 18.1189C38.5877 19.1795 38.8173 20.2223 38.941 21.3355C39.0469 22.4524 39.0469 23.5768 38.941 24.6936C38.8521 25.5069 38.6936 26.3201 38.5166 27.1326C38.0632 28.6809 37.4283 30.1701 36.6249 31.5691C36.2006 32.2409 35.7591 32.8949 35.2466 33.5133C34.5555 34.3281 33.7987 35.0849 32.9839 35.776C31.9233 36.6248 30.8271 37.3136 29.6258 37.9328C28.6384 38.3907 27.616 38.7689 26.5684 39.0638C25.2248 39.3638 23.8642 39.5585 22.4496 39.5763C21.0527 39.5585 19.7099 39.3638 18.3486 39.0638C16.7935 38.6138 15.298 37.9787 13.8943 37.1722C12.7455 36.4471 11.7375 35.6694 10.7658 34.7154C9.64689 33.5639 8.67876 32.275 7.88463 30.8796C7.52925 30.1608 7.19921 29.4299 6.89512 28.688C6.06411 26.249 5.76414 23.8982 5.99375 21.3348C6.22335 19.355 6.71885 17.6411 7.53134 15.8554C7.90412 15.1387 8.30513 14.437 8.73342 13.752C9.97031 11.984 11.4198 10.5168 13.2055 9.29767C14.6024 8.37852 15.9807 7.72452 17.5716 7.17644C19.1981 6.71649 20.7535 6.46912 22.4503 6.43431L23.2991 6.45208C24.1479 6.54022 24.9782 6.62836 25.7914 6.7876C27.9126 7.26532 29.7332 8.02523 31.5537 9.19176C32.2077 8.36074 32.915 7.5838 33.6216 6.82315C34.2681 6.20561 34.9405 5.61577 35.6369 5.05521C31.9248 2.33331 27.3823 0.724609 22.4511 0.724609C10.1844 0.724609 0.180359 10.7294 0.180359 23.0131C0.180359 35.2798 10.1844 45.2838 22.4511 45.2838C30.0331 45.286 36.7501 41.4687 40.7793 35.6709ZM58.9497 10.3598C56.4574 13.9653 54.9902 18.3136 54.9902 23.0153C54.9875 27.5336 56.3694 31.9441 58.9497 35.6531C58.9675 35.6879 58.9853 35.7064 59.003 35.7412C59.5156 35.3524 60.0281 34.9458 60.4695 34.5214C60.9295 34.0444 61.4946 33.5141 61.919 32.9838C62.3078 32.489 62.6611 31.9587 63.0322 31.4284C62.9255 31.2514 62.8019 31.0744 62.6959 30.8803C62.3412 30.1613 62.0111 29.4303 61.7064 28.6887C60.8932 26.2497 60.5754 23.8989 60.805 21.3355C61.0354 19.3557 61.5302 17.6419 62.3426 15.8562C62.7154 15.1394 63.1164 14.4377 63.5447 13.7527C64.7816 11.9848 66.2311 10.5175 67.999 9.29841L68.1583 9.19176C69.4754 8.35529 70.8877 7.67898 72.3652 7.17718C73.9909 6.71724 75.5463 6.46986 77.2616 6.43505L78.0919 6.45282C78.9399 6.54096 79.7717 6.6291 80.602 6.78834C82.7054 7.26606 84.5267 8.02597 86.3635 9.1925L86.4168 9.13991C87.0708 8.34445 87.7248 7.58454 88.4492 6.84167C89.0848 6.21922 89.7514 5.6294 90.4467 5.07447C89.1875 4.14995 87.8372 3.3563 86.4168 2.70586C83.542 1.39826 80.4199 0.72312 77.2616 0.726091C74.0079 0.726091 70.9342 1.41564 68.1583 2.67031C64.4504 4.35444 61.2682 7.01174 58.9497 10.3598Z" fill="#F4B311"/>
<path fill-rule="evenodd" clip-rule="evenodd" d="M68.1583 35.6886C70.6506 32.0831 72.1349 27.717 72.1349 23.0153C72.1349 18.3136 70.6506 13.9653 68.1583 10.3598C68.1413 10.342 68.1235 10.3064 68.1064 10.2894C67.505 10.696 66.9214 11.1552 66.4266 11.65C65.9667 12.127 65.4008 12.6573 64.9772 13.1876C64.6402 13.612 64.341 14.0534 64.0217 14.4956C64.712 15.6443 65.2416 16.8286 65.683 18.1188C65.9837 19.1795 66.2141 20.2223 66.3385 21.3355C66.4444 22.4524 66.4444 23.5768 66.3385 24.6936C66.2489 25.5069 66.0896 26.3201 65.9134 27.1326C65.4609 28.6811 64.8262 30.1703 64.0225 31.5691C63.5988 32.2409 63.1567 32.8949 62.6441 33.5133C61.953 34.3281 61.1962 35.0849 60.3814 35.776C59.9045 36.1649 59.4267 36.5011 58.9498 36.8189C58.3299 37.2279 57.6864 37.5999 57.0226 37.9328C56.0353 38.3908 55.0128 38.769 53.9652 39.0638C52.6223 39.3637 51.261 39.5585 49.8642 39.5763C48.4503 39.5585 47.1067 39.3637 45.7454 39.0638C44.1903 38.6137 42.6948 37.9786 41.2911 37.1721C41.1496 37.101 41.0259 37.0129 40.9022 36.9248C40.8667 36.9774 40.8134 37.0307 40.7786 37.0655C40.1462 37.8487 39.4798 38.6036 38.781 39.3282C38.1528 39.9339 37.4981 40.5117 36.819 41.0598C38.0581 41.9573 39.3847 42.7272 40.7786 43.3581C43.6378 44.6317 46.7334 45.2881 49.8634 45.2845C53.0986 45.2845 56.1738 44.595 58.949 43.3403C62.6621 41.682 65.8479 39.035 68.1583 35.6886ZM104.676 0.726819C99.7018 0.7216 94.8703 2.39018 90.9593 5.46404C89.222 6.83314 87.692 8.44646 86.4169 10.2538C83.7879 13.9894 82.3801 18.4474 82.387 23.0153C82.3804 27.5832 83.7881 32.0411 86.4169 35.7768C86.9594 35.3964 87.4733 34.9768 87.9545 34.5213C88.4322 34.0444 88.9803 33.5141 89.4039 32.9837C89.7928 32.506 90.129 32.012 90.4816 31.5165C90.3586 31.3047 90.2172 31.0921 90.0927 30.8803C89.738 30.1613 89.4079 29.4303 89.1032 28.6887C88.29 26.2497 87.9722 23.8989 88.2019 21.3355C88.4322 19.3557 88.9269 17.6419 89.7394 15.8561C90.1128 15.1397 90.5138 14.438 90.9415 13.7527C90.9586 13.7527 90.9586 13.7527 90.9586 13.7349C92.1955 11.967 93.6449 10.5175 95.4128 9.2984C96.8105 8.37925 98.1888 7.72525 99.779 7.17717C101.405 6.71722 102.962 6.46984 104.675 6.43503L105.506 6.45281C106.355 6.54095 107.186 6.62908 108.016 6.78833C110.19 7.28308 112.046 8.06077 113.92 9.28062C115.722 10.5353 117.137 11.9499 118.392 13.7527C119.276 15.1128 119.982 16.5801 120.494 18.1188C120.795 19.1795 121.025 20.2223 121.15 21.3355C121.256 22.4524 121.256 23.5768 121.15 24.6936C121.062 25.5069 120.901 26.3201 120.726 27.1326C120.273 28.6809 119.637 30.1701 118.834 31.5691C118.41 32.2409 117.967 32.8949 117.455 33.5133C116.764 34.3279 116.007 35.0847 115.193 35.776C114.132 36.6248 113.036 37.3136 111.834 37.9328C110.852 38.388 109.835 38.7661 108.794 39.0638C107.433 39.3637 106.072 39.5585 104.675 39.5763C103.261 39.5585 101.918 39.3637 100.557 39.0638C99.0015 38.6139 97.506 37.9789 96.1024 37.1721C95.9688 37.0961 95.839 37.0136 95.7136 36.9248C95.0596 37.7736 94.3522 38.5683 93.6101 39.3467C92.9817 39.9523 92.3274 40.5303 91.6488 41.0791C95.4375 43.8225 99.9979 45.295 104.675 45.2853C116.942 45.2853 126.965 35.2813 126.965 23.0146C126.965 10.7308 116.944 0.726819 104.676 0.726819Z" fill="#F4B311"/>
<path fill-rule="evenodd" clip-rule="evenodd" d="M99.5509 23.0153C99.5509 18.3492 98.0829 14.0008 95.6091 10.4131C95.0789 10.8022 94.5713 11.2211 94.0885 11.6678C93.6286 12.127 93.0627 12.6573 92.6391 13.1876C92.2673 13.6823 91.914 14.1949 91.5614 14.7074C92.1739 15.7942 92.6825 16.9365 93.0805 18.1188C93.3812 19.1795 93.6116 20.2223 93.7345 21.3355C93.8419 22.4523 93.8419 23.5768 93.7345 24.6936C93.6464 25.5069 93.4871 26.3201 93.3109 27.1326C92.8584 28.6811 92.2237 30.1703 91.42 31.5691C91.2785 31.7987 91.1193 32.0461 90.96 32.2764C90.6755 32.7044 90.369 33.1172 90.0416 33.5133C89.3503 34.328 88.5936 35.0847 87.7789 35.776C87.3454 36.1329 86.8908 36.4633 86.4176 36.7655C85.7746 37.1922 85.1076 37.5817 84.4201 37.9321C83.4376 38.387 82.4213 38.7651 81.3804 39.063C80.0191 39.363 78.6578 39.5578 77.2616 39.5756C75.847 39.5578 74.5027 39.363 73.1429 39.063C71.5877 38.6132 70.0922 37.9781 68.6886 37.1714C68.5471 37.0833 68.3879 36.9951 68.2457 36.8885C68.2109 36.924 68.1938 36.9766 68.1575 37.0122C67.5024 37.8143 66.8186 38.5924 66.1074 39.3452C65.4964 39.9389 64.8593 40.505 64.198 41.0421C65.4345 41.9433 66.7615 42.7133 68.1575 43.3396C70.9335 44.5942 74.0072 45.2838 77.2609 45.2838C80.5131 45.2838 83.6231 44.5765 86.4161 43.3225C88.0347 42.5804 89.5595 41.6488 90.9585 40.5473C96.1742 36.4663 99.5509 30.1211 99.5509 23.0153Z" fill="#F4B311"/>
</svg>
