<svg width="118" height="118" viewBox="0 0 118 118" fill="none" xmlns="http://www.w3.org/2000/svg">
<path fill-rule="evenodd" clip-rule="evenodd" d="M59.0004 0.0354004C26.4349 0.0354004 0.0361328 26.4355 0.0361328 58.9997C0.0361328 91.5645 26.4356 117.964 59.0004 117.964C91.5639 117.964 117.965 91.5645 117.965 58.9997C117.965 26.4361 91.5639 0.0354004 59.0004 0.0354004ZM59.0004 112.677C29.3547 112.677 5.32283 88.6454 5.32283 58.9997C5.32283 29.3552 29.3547 5.32272 59.0004 5.32272C88.6448 5.32272 112.678 29.3552 112.678 58.9997C112.678 88.6454 88.6448 112.677 59.0004 112.677Z" fill="#919191"/>
<path fill-rule="evenodd" clip-rule="evenodd" d="M47.2484 18.8959C51.0662 17.7814 55.0234 17.2174 59.0005 17.2211C63.0757 17.2211 67.0154 17.8048 70.7394 18.8928L59.0005 44.9134L47.2484 18.8959Z" fill="#919191"/>
<path fill-rule="evenodd" clip-rule="evenodd" d="M81.427 23.7433C85.8264 26.5499 89.6648 30.1511 92.7461 34.3627L73.479 76.9991L66.0441 60.4671H51.9571L44.5229 76.9985L25.2835 34.323C28.3589 30.1281 32.1868 26.5409 36.5723 23.7439L51.9571 57.8745H66.092L81.427 23.7433ZM18.6334 48.1861C17.6929 51.7134 17.218 55.3486 17.2208 58.999C17.2208 75.3722 26.6375 89.5443 40.3506 96.3967L18.6334 48.1861Z" fill="#919191"/>
<path fill-rule="evenodd" clip-rule="evenodd" d="M47.4426 99.1602C51.2005 100.238 55.0911 100.783 59.0005 100.78C63.0058 100.78 66.8786 100.215 70.5447 99.1646L59.0005 73.5266L47.4426 99.1602ZM77.6486 96.3974C91.3624 89.5449 100.779 75.3729 100.779 58.9997C100.779 55.2933 100.296 51.6997 99.3917 48.2782L77.6486 96.3974Z" fill="#919191"/>
</svg>
