<svg width="95" height="108" viewBox="0 0 95 108" fill="none" xmlns="http://www.w3.org/2000/svg">
<path d="M77.9261 56.8916C77.8426 56.9384 77.3276 57.1867 77.1852 57.2417C76.1349 57.7099 75.1925 57.6325 74.1402 57.0158C73.385 56.57 72.6848 55.595 72.41 55.251C72.1943 54.9803 71.9317 54.6262 71.5572 54.2903C70.859 53.6614 69.9146 53.2502 68.2801 53.2787C68.1498 53.2807 68.0196 53.2502 67.9036 53.1912C66.2508 52.318 63.4073 51.2514 60.6879 51.3898C60.1485 51.4264 60.0712 51.0336 59.8941 50.596C59.3995 49.275 59.0392 48.6623 58.7034 48.186C58.2759 47.5754 58.0887 47.5713 57.7345 47.4716C57.3396 47.3596 56.9122 47.3189 56.6496 46.861C56.617 46.804 56.4888 46.5617 56.6354 46.3928C56.9977 45.9715 57.9971 45.3914 56.4949 44.5446C55.5769 44.0256 55.9861 43.6938 56.1387 43.6165C56.3504 43.5065 56.7127 43.4211 57.1483 43.5086C57.5839 43.5961 58.0907 43.8546 58.5853 44.4347C59.0759 45.0107 60.7327 47.6914 61.7382 49.7269C61.7504 49.7554 61.7728 49.9019 61.958 49.9182C62.2389 49.9467 62.7193 49.9467 62.819 49.9548C62.9737 49.967 62.9758 49.8429 62.9595 49.792C61.5326 45.0576 59.8921 39.165 57.0445 35.0656C56.9875 34.9475 57.0363 34.8234 57.2155 34.8437C59.7638 35.1043 60.5027 38.7314 61.9967 41.1129C63.9161 44.1762 65.0397 42.9753 65.2229 40.9093C65.3491 39.4662 64.9685 37.6282 63.9629 36.5962C63.7228 36.3052 63.2994 35.9367 63.1223 35.719C63.0592 35.6416 63.049 35.5093 63.218 35.4666C63.2872 35.4482 63.3869 35.4421 63.5233 35.4462C64.7018 35.5378 66.3363 36.4904 67.0243 37.5509C68.4348 39.7288 68.331 40.9012 68.1376 41.6706C67.8079 42.9916 67.1912 43.7508 67.9544 45.8392C69.4688 49.9731 69.0719 49.1101 68.2109 51.7094C68.1376 51.9068 68.2577 52.0534 68.4287 52.0391C70.4112 51.858 71.0158 52.3058 71.4432 52.5358C71.488 52.5582 71.5246 52.5928 71.5551 52.5866C71.6305 52.5602 71.659 52.4645 71.6712 52.3343C71.834 51.2188 71.602 50.7486 71.3475 50.0912C71.1989 49.7065 71.03 49.2709 70.9771 48.8475C70.8895 48.3041 70.9893 47.9967 71.1521 47.5896C71.431 46.8956 71.5979 46.3582 71.3719 45.314C70.8712 43.1096 69.0638 39.4804 67.9097 37.3901C67.814 37.2089 67.0242 35.7169 66.9001 35.4991C66.8146 35.3505 66.8512 35.1674 66.9143 35.0269C66.9673 34.9089 67.0548 34.6748 67.0548 34.6748C67.3296 33.9725 67.4761 33.4352 67.5596 32.8225C67.8283 30.8461 67.3092 29.4396 65.8803 28.2631C64.5532 27.1721 62.1901 26.6897 59.0433 26.8648L58.3757 26.9035C55.4121 27.0724 52.0536 27.2637 49.5256 27.0561C47.079 26.8546 45.6501 26.4658 45.1555 25.8715C44.9947 25.6781 44.9336 25.4644 44.9601 25.1998C45.015 24.6686 45.3366 24.1393 45.8435 23.7485C46.2811 23.4107 46.8001 23.2295 47.1665 23.2865C47.826 23.313 48.5465 23.6834 49.3831 24.1129C50.1321 24.4976 50.9809 24.9332 51.9681 25.2181C52.8026 25.4583 53.629 25.5641 54.4228 25.5336C55.1719 25.5051 55.9087 25.3484 56.6028 25.0675C56.8979 24.9494 57.1096 24.8131 57.2012 24.7317C57.248 24.6889 57.2664 24.6075 57.2094 24.5301C57.1748 24.4833 57.132 24.4833 56.9794 24.4833C55.9291 24.4833 54.9928 24.3164 54.3984 24.178C53.743 24.0111 53.686 23.8523 53.6901 23.7913C53.7043 23.6508 54.0504 23.5165 54.4452 23.4982C56.385 23.4107 57.8709 23.5165 58.852 23.5857C59.1878 23.6101 59.4504 23.6305 59.6437 23.6325C59.8391 23.6366 60.0956 23.6305 60.1078 23.6284C60.1648 23.6223 60.1831 23.5837 60.1892 23.5674C60.1974 23.5328 60.1872 23.4941 60.1607 23.4697C59.4768 22.9038 57.2562 22.053 54.7221 21.6052C50.6471 20.8826 47.9155 21.4749 46.3421 22.0998C46.0287 22.224 45.2227 22.5741 44.5062 23.1298C43.7164 23.7404 43.2768 24.408 43.1954 25.1123C43.0895 26.0527 43.7714 27.2678 47.6306 27.7156C51.7177 28.1899 55.5322 28.1227 58.8988 28.0637C59.2509 28.0576 59.5949 28.0515 59.9328 28.0453C62.0659 28.0128 63.8714 28.5278 64.6448 29.3908C65.5363 30.3861 65.5893 31.7152 65.3633 32.5538C65.2982 32.7961 65.1659 33.1584 65.0071 33.3884C64.7608 33.7202 64.4942 33.8199 63.9996 33.6896C62.4221 33.2724 59.6112 32.3462 58.2474 31.8862C57.0323 31.4751 56.0756 31.1514 55.2614 30.952C52.8474 30.3596 52.0943 30.7525 50.4741 31.7763C50.0833 32.0226 49.6864 32.2933 49.2264 32.6068C48.5608 33.0586 47.8056 33.5736 46.8022 34.1985C46.1976 34.575 45.4038 35.0127 44.5652 35.4747C43.7124 35.9449 42.829 36.4314 41.9639 36.9484C39.1916 38.5767 38.75 40.7607 38.237 43.2867C37.8727 45.0799 37.4615 47.1133 36.0917 49.1691C35.941 49.3951 34.7544 50.8362 34.502 51.2433C33.5637 52.7515 33.0609 54.0522 33.2583 56.2403C33.4069 57.8768 32.8492 59.3016 32.3058 60.6796C31.8803 61.7624 31.4773 62.7862 31.4122 63.8833C31.3613 64.5611 31.3857 65.1962 31.4102 65.8068C31.4488 66.8246 31.4651 67.8362 31.1537 68.7134C30.9155 69.3872 30.311 70.0507 30.079 70.7021C29.7777 71.5407 29.5661 72.7334 29.5661 73.8285C29.5457 74.7506 28.8618 75.4284 28.1351 76.1469C27.496 76.7779 26.8263 77.4434 26.5841 78.3044C26.5516 78.4184 26.5292 78.5059 26.4885 78.5751C26.4254 78.6769 26.3317 78.7421 26.2055 78.8316C25.9592 79.0067 25.6621 79.2346 25.3384 79.888C25.0657 80.4376 25.1451 81.4187 25.3934 81.895C25.4321 81.9682 25.54 82.1412 25.7069 82.1616C25.8188 82.1738 25.9308 82.1148 26.0427 81.9845C26.0427 81.9845 26.751 81.1642 27.0279 80.9179C27.1052 80.8467 27.2212 80.8386 27.3067 80.8996C27.3841 80.9566 27.4024 81.0543 27.3535 81.1622C27.325 81.2233 26.8976 81.9845 26.6493 82.6236L26.6432 82.6399C26.6106 82.7315 26.5679 82.8455 26.6289 82.9391C26.6859 83.0307 26.8263 83.0796 27.0645 83.0959C27.1703 83.0999 27.2721 83.102 27.3698 83.102C28.6827 83.102 29.3727 82.7519 29.7289 82.4466C29.8673 82.298 29.8958 82.2349 29.9406 82.127C29.9528 82.0985 29.967 82.07 29.9833 82.0293C30.2479 81.325 30.423 80.5108 30.4433 79.9043C30.4433 79.6458 30.5166 79.5725 30.6937 79.3954C31.3857 78.6993 31.3857 77.7773 31.3857 76.8857C31.3857 76.0655 31.3878 75.2187 31.9251 74.5511C33.3927 72.9085 34.156 70.987 34.8948 69.1307C35.6561 67.2154 36.4438 65.2328 38.005 63.5801C38.3978 63.177 38.7825 62.9552 39.039 62.9959C39.1632 63.0162 39.2608 63.0956 39.3321 63.234C39.6659 63.8508 39.5662 64.6853 39.4685 65.4893C39.3586 66.3991 39.2547 67.2581 39.7371 67.8199C40.0587 68.2371 40.1463 68.6768 39.9875 69.092C39.7819 69.7515 39.155 71.7503 37.663 72.6357C37.6264 72.6561 37.2336 72.937 37.1094 73.0571C37.0443 73.1181 36.9995 73.2036 36.9445 73.2993C36.8143 73.5334 36.6494 73.8244 36.1385 73.9751C35.5767 74.1155 35.0475 74.4575 34.7585 74.8666C33.9687 75.982 34.0033 77.3641 34.0766 77.7589C34.1051 77.9116 34.158 78.1151 34.3025 78.3146C34.3921 78.4367 34.4959 78.51 34.6038 78.5263C34.6913 78.5405 34.7808 78.5141 34.8643 78.449C34.9518 78.3838 35.0536 78.2637 35.1839 78.1131C35.3894 77.877 35.6418 77.5818 35.9614 77.3478C36.0632 77.2725 36.1649 77.2908 36.226 77.3315C36.283 77.3702 36.3074 77.4333 36.2911 77.4903C36.2606 77.5941 36.1649 77.7447 36.0449 77.934C35.8922 78.1762 35.7009 78.4754 35.5502 78.8296C35.5136 78.909 35.5075 78.9822 35.538 79.0453C35.5808 79.1451 35.6886 79.1878 35.7192 79.198C36.6697 79.4992 38.0884 79.141 38.8843 78.394C39.2832 78.0195 39.4766 77.5228 39.4766 76.8756C39.4766 76.7127 39.554 76.4563 39.7249 76.2873C40.2847 75.809 40.5147 75.0599 40.761 74.2682C40.82 74.0789 40.8811 73.8855 40.9442 73.6921C41.1986 72.9472 41.5324 72.304 42.3384 71.5997C43.3847 70.6207 43.8589 69.6986 44.1561 69.1287C44.4594 68.518 44.5265 68.1761 44.7484 67.8178C45.184 67.1299 46.6597 66.9996 47.2052 67.3212C47.4311 67.4535 47.482 67.6387 47.3538 67.8708C47.2723 68.0214 46.4928 69.2793 46.1284 70.1403C45.9493 70.5616 45.5422 70.7204 45.302 70.8629C43.8406 71.7157 43.5739 73.3258 43.5312 73.9852C43.517 74.1908 43.5414 74.4636 43.6452 74.6182C43.7042 74.7058 43.7897 74.7648 43.8813 74.7791C43.9729 74.7933 44.0665 74.7668 44.152 74.7017C44.2375 74.6366 45.0273 73.8407 45.1229 73.7552C45.2532 73.6412 45.3692 73.6596 45.4282 73.7125C45.4893 73.7674 45.5158 73.8753 45.4343 73.9954C45.3224 74.1582 44.7789 74.9826 44.842 75.1617C44.9499 75.465 45.2613 75.4609 45.5727 75.463C48.0784 75.2513 48.9638 73.4662 48.9638 73.4662C49.0228 73.3624 49.1002 73.226 49.0595 72.8556C48.9882 72.1859 48.8294 69.8675 50.1708 68.4244C50.5698 67.9827 50.8038 68.2799 50.8934 68.4794C51.0562 68.8335 51.2964 69.4503 51.4328 69.7576C51.7238 70.413 51.9213 70.8954 52.2551 71.5427C52.8169 72.6357 53.6636 72.7864 54.7119 72.6561C56.0654 72.4851 56.9997 72.593 57.9075 72.6846C58.681 72.7497 59.1084 72.8006 59.6763 72.2816C59.9857 71.9986 60.5801 71.4796 60.977 70.9178C61.2314 70.5596 61.3087 70.3336 61.2456 69.78C61.0584 66.9935 62.5076 64.5713 65.1191 63.3032C65.5119 63.1445 65.9475 63.1933 66.2141 63.5516C66.8004 64.4207 68.1641 66.6475 68.1641 68.5343C68.1641 68.7134 68.0949 68.9088 68.0114 69.1368C67.8262 69.6538 67.5962 70.297 68.0237 71.1722C68.0501 71.9294 67.7692 72.5218 67.5209 73.0449C67.1688 73.7898 66.8879 74.3781 67.8547 74.9561C68.1275 75.119 68.4816 75.2655 68.9376 75.406C68.964 75.4141 68.9905 75.4182 69.0169 75.4182C69.0536 75.4182 69.0902 75.408 69.1208 75.3897C69.1533 75.3714 69.1737 75.3388 69.1777 75.3022C69.2062 75.0823 69.2307 74.3251 69.2714 74.146C69.2897 74.0748 69.3243 73.9893 69.4078 73.9832C69.4851 73.9791 69.5604 74.0402 69.5808 74.1012C69.6581 74.2824 69.8535 75.0253 69.9085 75.1434C69.9553 75.2452 70.0102 75.3144 70.0835 75.3368C70.4723 75.4487 70.9995 74.7831 71.1969 74.4391C71.5389 73.7328 71.3984 72.6846 70.8427 71.7686C70.7613 71.5936 70.7491 71.5223 70.7491 71.3615C70.9547 70.5311 70.8041 70.1077 70.6473 69.662C70.5557 69.4055 70.4641 69.1388 70.4214 68.7725C70.2728 67.4616 71.0727 63.3134 71.1501 62.886C71.2865 62.1145 71.3984 61.5629 71.4473 60.9971C71.4941 60.4475 71.2681 59.8043 70.8875 59.3972C70.5374 59.0227 70.1161 58.6808 69.709 58.351C69.3508 58.0599 69.0088 57.7831 68.732 57.4982C68.2822 57.0382 68.1397 56.3665 68.1437 56.1772C68.1458 56.1263 68.156 56.0937 68.1722 56.0774C68.1865 56.0652 68.2089 56.0591 68.2414 56.0632C68.8602 56.1059 69.3548 56.5171 69.9817 57.0361C70.5435 57.5002 71.1786 58.0294 72.0701 58.4243C73.8308 59.2039 75.5019 59.0899 77.1791 58.0722C77.8935 57.5653 78.1133 57.1318 78.15 57.0707C78.1968 56.9934 78.1296 56.7756 77.9261 56.8916ZM38.925 49.9304C39.0288 49.1183 39.6272 48.2532 39.8898 47.2395C40.2643 46.0956 40.3681 44.0948 40.5717 42.5092C40.6734 41.7174 40.9747 41.3856 41.5446 41.3123C41.9212 41.2798 42.314 41.6054 42.5176 42.7229C43.2177 47.2945 44.5917 47.9275 45.3896 49.1386C45.4038 49.161 45.4181 49.1834 45.4303 49.2078C45.6358 49.5864 45.6989 49.9406 45.3794 50.197C45.1921 50.3456 44.5672 50.5716 43.5047 49.9304C42.2285 49.161 42.0352 48.3326 39.9203 50.0261C39.9203 50.0261 39.6374 50.2459 39.3667 50.3049C39.1347 50.3578 38.8823 50.2683 38.925 49.9304ZM49.9978 66.7024C49.9225 66.7492 49.837 66.7187 49.7128 66.6393C48.8722 66.102 46.5437 65.6786 44.5774 66.4643C42.5562 67.2764 40.7019 68.4203 40.5778 66.4195C40.5534 64.6466 40.9319 63.8752 40.3152 62.8208C40.3152 62.8208 40.2887 62.7842 40.2603 62.7415C40.2073 62.658 40.2725 62.6397 40.2928 62.6377C43.1343 62.4158 43.8915 61.5283 44.0686 61.2169C44.1072 61.1477 44.0563 61.0765 43.9831 61.0683C43.3317 60.9951 40.0771 60.8974 38.7683 61.0867C36.4682 61.4184 34.9213 64.8848 34.6221 65.2125C34.2761 65.5911 33.8405 65.3 33.8405 64.956C33.8405 64.378 34.1824 61.569 34.4104 60.5961C34.7686 59.0553 35.2632 57.9093 36.7654 57.6793C37.8198 57.5165 40.4048 57.2437 40.2256 56.5435C40.0771 55.9655 40.0038 55.5116 40.0017 55.2571C39.9997 54.9152 40.1748 54.846 40.5208 54.9233C40.7752 54.9783 41.1192 55.131 41.5589 55.2348C44.8115 56.0001 46.4765 55.3895 48.4142 54.5305C48.4692 54.5061 49.1897 54.1804 49.2345 54.156C49.5846 53.9626 50.0222 54.3127 49.8289 54.7279C49.725 54.9478 49.5866 55.0495 49.2895 55.3365C48.6503 55.9533 46.2628 57.9093 47.6998 61.219C48.8213 63.7979 49.147 64.4655 49.9428 66.2261C50.0751 66.5152 50.0935 66.6434 49.9978 66.7024ZM56.043 71.1661C55.8843 71.4124 55.64 71.5875 55.1658 71.5875C54.5816 71.5875 54.1684 71.4124 53.9221 71.1478C53.4133 70.6064 53.3502 69.8635 53.4743 69.377C53.5517 69.0696 53.7369 68.8661 53.9364 68.8091C54.0239 68.7806 54.0687 68.7867 54.1135 68.8437C54.201 68.9842 54.5185 69.4849 54.5897 69.5887C54.6752 69.7108 54.8279 69.8187 54.9561 69.8696C55.1943 69.9652 55.4955 70.0467 55.6563 70.1179C56.1448 70.3296 56.2588 70.8323 56.043 71.1661ZM65.4183 62.0453C65.3552 62.1451 65.3002 62.1614 65.2188 62.198C62.2735 63.3134 59.9328 66.3198 60.3561 69.9327C60.3643 70.122 60.3053 70.3845 60.1282 70.5637C60.1282 70.5637 59.5094 71.1906 59.1206 71.4593C58.9883 71.5508 58.8377 71.6262 58.4917 71.6038C58.0541 71.5753 57.6164 71.5488 57.1788 71.5203C56.9733 71.4857 57.0608 71.3066 57.0771 71.2679C57.0913 71.2292 57.1055 71.1865 57.1178 71.1356C57.2297 70.5942 57.1503 69.835 56.3891 69.55C56.2792 69.4889 56.3484 69.3892 56.3606 69.3566C56.6862 68.5506 57.0954 67.5532 57.4251 66.1569C57.6246 65.3122 57.5025 64.8034 57.2053 64.1948C57.1381 64.0604 57.0547 63.9363 56.9549 63.8223L56.4908 63.2096C56.3606 63.059 56.3952 62.9002 56.5824 62.8351L57.2358 62.6682C57.3946 62.6112 57.3803 62.369 57.2256 62.3303L56.8878 62.2245C56.5682 62.0922 56.3748 61.8377 56.2323 61.6403C56.1937 61.5853 56.1591 61.5304 56.1285 61.4734C56.0573 61.3431 56.0044 61.2047 55.9759 61.0582L55.9372 60.8689C55.9331 60.7712 55.7805 60.7691 55.7133 60.8363C55.1963 61.3533 55.0375 62.1492 55.4161 62.7801C55.9474 63.6635 55.925 63.576 56.3972 64.2457C56.554 64.4675 56.6455 64.6466 56.6985 64.8644C56.7697 65.1657 56.7494 65.931 56.5478 66.4765L56.0125 68.1048C55.6889 68.8335 55.3286 68.6585 55.123 68.5221C54.8584 68.3471 54.6121 67.8911 54.4798 67.4087C54.4798 67.4087 54.1114 66.049 54.1257 64.2436C54.1012 64.0258 53.9506 63.6696 53.4784 63.981L52.2185 65.0273C52.0393 65.1229 51.732 65.07 51.7931 64.6609C51.7931 64.6609 52.6988 60.6185 53.6738 58.3408C54.4086 56.4845 53.5924 55.4363 52.6194 54.2862C51.0298 52.261 50.6756 49.5335 54.374 51.0275C55.3673 51.4814 55.7235 50.8932 56.9468 50.7873C57.8261 50.71 58.1151 51.0662 58.1884 51.2168C58.2556 51.3511 58.28 51.4997 58.2881 51.5791C58.2902 51.6117 58.28 51.6341 58.2434 51.6341C56.1692 51.7521 53.6962 53.4761 55.6075 56.1772C57.4821 58.8253 62.6481 59.7148 64.9542 57.1908C64.9847 57.1562 64.9929 57.0809 64.9461 57.0422C64.9135 57.0137 64.8667 57.0076 64.828 57.0239C64.3232 57.2152 63.8591 57.3598 63.393 57.4351C62.2898 57.6162 59.9572 57.4839 58.854 56.226C58.223 55.5075 58.2393 54.675 59.3059 54.5468C59.9002 54.5 60.1913 54.6078 60.4477 54.6139C61.1133 54.6038 61.2497 53.9382 61.1133 53.6369C60.9993 53.3499 60.7347 52.9998 60.3602 52.6966C60.0162 52.4503 60.2015 52.1938 60.4254 52.202C62.5626 52.3241 64.6041 52.6925 65.3735 55.2571C65.404 55.3528 65.4549 55.6764 65.5363 55.7986C65.7012 56.0449 65.9882 56.2281 66.3057 56.5049C67.0812 57.1786 67.7753 58.3815 65.4183 62.0453ZM68.1926 60.4597C68.5671 59.674 69.078 60.2012 69.3202 61.0622C69.6296 62.1573 69.6744 63.9159 69.5421 64.8237C69.3731 66.0083 68.8154 65.7702 68.5183 65.3509C68.0481 64.6853 67.5392 63.7999 67.1851 63.1933C67.1728 63.175 67.1647 63.1567 67.1525 63.1363C66.9896 62.7944 66.9632 62.5237 67.1362 62.2692C67.3153 61.9965 68.0216 60.82 68.1926 60.4597ZM47.8138 2.38659C56.0858 2.38659 64.0301 3.05829 71.4228 4.38133C78.2436 5.60259 84.3051 7.3205 89.4365 9.48621C91.0465 10.2312 92.0337 11.0433 92.6362 12.1099C93.2611 13.2172 93.5501 14.7621 93.5501 16.9726C93.5501 27.2861 92.5487 36.9911 90.5702 45.8188C88.6854 54.2354 85.846 62.1532 82.1313 69.3505C75.2719 82.6399 65.3063 93.9855 51.6628 104.034C49.9774 105.199 48.9679 105.612 47.8117 105.612C46.6536 105.612 45.644 105.199 43.9607 104.034C30.3171 93.9855 20.3496 82.6399 13.4922 69.3505C9.77954 62.1532 6.93806 54.2354 5.05325 45.8188C3.07683 36.9911 2.07336 27.2861 2.07336 16.9726C2.07336 14.7621 2.36443 13.2172 2.98728 12.1099C3.58977 11.0433 4.57695 10.2332 6.18699 9.48824C11.3183 7.32254 17.3778 5.60462 24.2006 4.38336C31.5974 3.05829 39.5397 2.38659 47.8138 2.38659ZM47.8138 0.973999C30.3965 0.973999 15.6701 3.94778 5.61706 8.1937C1.93699 9.8933 0.660767 12.1587 0.660767 16.9726C0.660767 59.7331 17.3697 86.2121 43.1404 105.186C44.9825 106.461 46.2546 107.027 47.8138 107.027C49.3709 107.027 50.6451 106.461 52.4851 105.186C78.2538 86.2121 94.9647 59.7331 94.9647 16.9726C94.9647 12.1587 93.6905 9.8933 90.0084 8.1937C79.9554 3.94574 65.229 0.973999 47.8138 0.973999ZM8.52978 12.3318V22.1772C9.47626 21.8698 10.4309 21.5788 11.3875 21.306L11.3122 22.859C9.83653 23.2946 8.36491 23.7485 6.90143 24.2208V12.8426L8.52978 12.3318ZM14.8519 17.7705L16.0772 12.1872L17.3412 17.1476L14.8519 17.7705ZM17.6913 18.5826L18.3732 21.249L20.1053 20.8602L17.1865 9.94418L15.0859 10.4693L12.1875 22.8244L13.8606 22.3563L14.5038 19.3784L17.6913 18.5826ZM22.5743 20.4145V12.4356C22.5743 12.1241 22.5743 11.7354 22.554 11.3853C22.6313 11.774 22.7107 12.0855 22.788 12.3582L25.141 20.1417L25.2224 20.1275L27.6303 11.54C27.728 11.1899 27.8257 10.7807 27.9051 10.451C27.8868 10.8011 27.8665 11.2102 27.8665 11.542V19.4314L29.4948 19.1871V7.68892L27.3698 8.00034L25.5969 14.4791C25.5196 14.7702 25.4219 15.161 25.3222 15.5701C25.2631 15.1814 25.1858 14.8313 25.1084 14.5768L23.3539 8.68221L21.1495 9.10965V20.7056L22.67 20.4145H22.5743ZM35.3528 18.4829C37.2051 18.2712 38.2472 17.459 38.2472 15.7045V14.2654C38.2472 13.1805 37.7974 12.5475 36.8366 12.3623C37.6732 12.0163 38.0437 11.3812 38.0437 10.4612V9.35391C38.0437 7.61971 36.9832 6.71394 34.8256 6.9643L31.5302 7.349V18.9062L35.3528 18.4829ZM33.1586 8.7046L34.7707 8.53159C35.8637 8.4176 36.2118 8.78195 36.2118 9.56966V10.6057C36.2118 11.4117 35.8657 11.8331 34.7707 11.9287L33.1586 12.0834V8.7046ZM33.1586 13.4879L34.9885 13.3149C36.0672 13.2192 36.4153 13.5469 36.4153 14.3937V15.6841C36.4153 16.4739 36.0306 16.8789 35.0292 16.9746L33.1586 17.1476V13.4879ZM43.3399 18.1694C45.5096 18.1694 46.9996 16.7751 46.9996 14.3957V9.88312C46.9996 7.48334 45.5463 6.22543 43.4946 6.22543C41.3655 6.22543 39.8756 7.71538 39.8756 10.1152V14.6257C39.8756 16.9502 41.2698 18.1694 43.3399 18.1694ZM41.5039 14.5117V9.91162C41.5039 8.58044 42.314 7.80901 43.3541 7.80901C44.4146 7.80901 45.1677 8.46442 45.1677 9.7956V14.4608C45.1677 15.851 44.4146 16.5818 43.2971 16.5818C42.255 16.5818 41.5039 15.965 41.5039 14.5768M50.6634 17.972V12.7511L51.7442 12.7897L53.7267 18.0432L55.5953 18.1389L53.454 12.5943C54.5633 12.3419 55.1393 10.2006 55.1393 10.2006V9.03231C55.1393 7.26147 54.1806 6.36588 52.2246 6.26818C51.4002 6.2295 49.9042 6.21119 48.8295 6.21119V17.7684L50.5738 17.972H50.6634ZM50.6634 7.9291L52.2592 7.98609C53.1344 8.02273 53.513 8.42371 53.513 9.18293V10.1884C53.513 10.9477 53.1324 11.3283 52.2022 11.2896L50.6634 11.2326V7.9291ZM60.6248 18.7047C62.7661 18.7047 63.8937 17.4 63.8937 15.3381V12.2503L60.4335 11.8514V13.3535L62.2654 13.5286V15.2872C62.2654 16.596 61.5713 17.1517 60.5597 17.1517C59.3099 17.1517 58.3981 16.3375 58.3981 14.8496V10.1844C58.3981 8.98345 59.082 8.31583 60.0244 8.31583C61.2823 8.31583 61.9845 9.27859 62.0049 10.4429L63.6515 10.6464C63.5966 8.44406 62.2084 6.79943 59.8778 6.79943C58.1579 6.79943 56.7697 7.9291 56.7697 10.1477V14.7153C56.7697 17.402 58.6179 18.7047 60.7388 18.7047M67.354 19.0772V14.186L70.6107 14.7214V19.6146L72.239 19.9097V8.90611L70.6107 8.62929V13.264L67.354 12.7287V8.08379L65.7256 7.82325V18.8553L67.354 19.0772ZM74.478 9.34373L75.2922 9.51063L76.1064 9.67754V20.7096L74.478 20.3392V9.34373ZM79.7702 21.8169V14.4547C79.7702 14.011 79.7519 13.553 79.7519 13.034C79.8658 13.5897 79.9819 13.954 80.1162 14.3387L83.092 22.6514L84.8588 23.1501V11.6621L83.434 11.253V19.5189C83.3424 19.0914 83.2284 18.6701 83.09 18.2569L80.3543 10.4714L78.3454 9.99303V21.4709L79.7702 21.8169ZM87.0978 23.6488V12.4966L87.9119 12.749L88.7261 13.0014V24.1536L87.0978 23.6488Z" fill="#919191"/>
</svg>
