<svg width="92" height="92" viewBox="0 0 92 92" fill="none" xmlns="http://www.w3.org/2000/svg">
<path fill-rule="evenodd" clip-rule="evenodd" d="M91.8168 0.0829215C91.8595 8.43323 91.7959 16.7181 91.8168 25.0906H34.1289C53.7413 28.2305 72.1816 31.1258 91.8376 34.2657C91.7949 37.4067 91.8585 40.2123 91.8376 43.3512C61.0122 36.6262 30.8597 30.2124 0.0352783 23.4874C0.706194 3.17856 14.0124 0.0829215 38.1316 0.0829215C55.9843 -0.0731787 73.9641 0.216872 91.8168 0.0829215ZM0.119642 91.9648C0.0987999 83.6366 0.119642 75.4857 0.0988 67.1132L58.3325 67.0689C38.6973 63.929 19.4194 59.0297 0.120634 54.776V50.9674C30.9451 57.6934 61.1392 62.2583 91.9647 68.9832C91.2937 89.2699 77.9667 91.9648 53.8277 91.9648H0.119642ZM0.245686 30.9697L91.8168 46.2243L91.8376 55.1547L0.119642 34.4661L0.245686 30.9697ZM0.245686 41.6594L91.8803 57.1587L91.8376 65.8433L0.119642 45.1558L0.245686 41.6594Z" fill="#919191"/>
</svg>
