<svg width="116" height="116" viewBox="0 0 116 116" fill="none" xmlns="http://www.w3.org/2000/svg">
<path d="M58.0264 115.962C90.0313 115.962 115.965 90.0268 115.965 58.0237C115.965 26.0188 90.0313 0.0344238 58.0264 0.0344238C26.0221 0.0344238 0.0377197 26.0188 0.0377197 58.0235C0.0377197 90.0267 26.0221 115.962 58.0264 115.962Z" fill="#919191"/>
<path d="M58.0265 114.508C89.2284 114.508 114.511 89.2253 114.511 58.0233C114.511 26.8212 89.2285 1.48865 58.0265 1.48865C26.8248 1.48865 1.54272 26.8213 1.54272 58.0233C1.54272 89.2253 26.8249 114.508 58.0265 114.508Z" fill="#222222"/>
<path d="M58.0264 112.801C88.2747 112.801 112.855 88.2715 112.855 58.0233C112.855 27.7241 88.2748 3.19397 58.0264 3.19397C27.7777 3.19397 3.19775 27.724 3.19775 58.0233C3.19787 88.2715 27.7778 112.801 58.0264 112.801Z" fill="#919191"/>
<path d="M58.0265 92.2344C76.9382 92.2344 92.2381 76.8858 92.2381 58.0236C92.2381 39.1116 76.9383 23.7614 58.0265 23.7614C39.1151 23.7614 23.7651 39.1116 23.7651 58.0236C23.7651 76.8856 39.1151 92.2344 58.0265 92.2344ZM64.3475 8.71215C65.8015 10.7694 66.003 13.6287 65.6016 16.086C65.1507 18.344 63.3445 19.7485 61.2875 20.4008C58.0769 20.8019 54.1645 21.6044 51.3052 18.5448C49.7 16.2872 49.7 13.4278 50.3013 10.5684C51.1043 7.50866 54.6156 6.70611 57.475 6.50488C59.9836 6.50512 62.5412 6.90663 64.3475 8.71215Z" fill="#222222"/>
<path d="M60.6846 11.2202C60.8857 13.0767 61.488 15.936 60.0832 17.5413C58.8291 18.4444 57.0737 18.795 55.8193 17.9424C54.164 16.3372 54.4147 13.8791 54.8163 11.8225C55.0162 10.6183 55.8193 9.3643 57.0737 9.16389C58.4277 8.96313 60.2841 9.56505 60.6846 11.2202Z" fill="#919191"/>
<path d="M88.7269 18.0928C89.5796 20.5511 88.7269 22.8086 87.5222 24.815C86.5193 26.6712 83.7102 28.1755 82.2049 27.9254C78.8946 27.3236 76.0843 25.2668 72.8243 23.2605L79.2959 11.5717C82.6068 13.3773 86.6699 14.4308 88.7269 18.0928Z" fill="#222222"/>
<path d="M84.8646 18.6955C85.0653 20.5514 84.2624 22.6082 82.6067 23.8124C81.0013 25.0663 77.6907 22.6082 77.6907 22.6082L81.3522 15.8362C82.8074 16.6888 84.4632 17.0903 84.8646 18.6955Z" fill="#919191"/>
<path d="M18.4479 29.7309C17.2436 31.1359 15.7888 32.3901 15.5884 34.1956C15.5884 34.7978 16.1397 35.55 16.842 35.4497C18.8493 33.7941 20.9056 30.3333 23.7649 31.1359C25.2194 31.1359 26.6243 32.5906 27.0254 33.7939C27.8785 37.456 25.2194 40.5666 22.7616 42.9741L20.5046 41.5695C22.1598 40.1146 24.5677 37.9081 23.5638 35.6503C20.4042 34.0951 19.9023 39.9143 16.6416 39.9143C15.1868 39.9143 13.2304 38.9108 12.7289 37.2558C12.7289 37.2558 12.5282 36.2522 12.5282 35.6001C12.4781 34.4463 12.9796 33.1921 13.5316 32.1388C14.1334 31.1358 14.7858 30.3332 14.7858 30.3332L16.6418 28.2765L18.4479 29.7309ZM12.5283 33.1921C12.0767 33.2425 11.2741 33.343 10.7727 33.3929C10.873 33.0418 11.3245 31.9386 11.3245 31.9386L12.9298 31.6878L12.1771 30.3831C12.5282 29.8816 12.7789 29.3298 13.1304 28.8284L14.033 30.4835L12.5283 33.1921ZM104.228 35.8013L94.1945 46.9873L92.2886 42.9241L94.6968 40.6163L91.9869 35.9518L88.9276 36.6534L86.6191 33.3929L101.318 30.9347L104.228 35.8013Z" fill="#222222"/>
<path d="M96.3013 38.5597L94.4951 35.2993L100.665 34.0952L96.3013 38.5597Z" fill="#919191"/>
<path d="M37.2087 102.869L34.1489 100.912L34.8011 98.7562L32.0416 96.6989L30.0352 98.0539C29.2327 97.3516 28.4801 96.6493 27.7278 95.9471L35.7037 90.0266L39.8172 92.4851L37.2087 102.869ZM85.7665 94.5425C86.5193 96.2477 85.9673 98.0538 84.7132 99.0567C83.1079 100.712 81.2521 101.715 78.9953 101.515C76.9886 101.313 75.3328 99.2565 74.7314 97.652C74.3297 95.9963 74.3297 94.2398 75.5335 93.138C77.1882 91.6822 78.7946 90.7287 81.0514 90.4795C83.1079 90.4795 84.9646 92.7366 85.7665 94.5425Z" fill="#222222"/>
<path d="M35.6533 96.7998L33.7474 95.4448L36.4564 93.1876L35.6533 96.7998ZM82.7073 96.0478C83.3591 97.5021 82.6566 98.8569 81.1013 99.1063C78.9953 99.508 78.2923 97.2013 77.59 95.9965C76.9886 94.7919 77.7909 93.1381 79.1963 92.9363C81.2525 92.5349 81.9042 94.8434 82.7073 96.0478Z" fill="#919191"/>
<path d="M47.9436 102.92C47.8937 103.973 49.85 104.675 50.5522 103.571C50.803 102.819 51.4553 99.1062 51.8567 96.8494C52.9097 97.1004 54.1138 97.3517 54.9161 97.5534C54.6657 99.2566 54.415 104.022 52.3581 105.83C50.9532 106.882 48.6962 106.281 47.2416 105.83C43.9806 104.675 44.5326 101.966 44.5326 101.966L46.0375 95.6462L49.1477 96.2971L47.9436 102.92ZM66.6547 98.6057L68.1096 105.879L64.899 106.532L63.4443 99.2071L60.9359 99.8084L60.4344 97.6011L68.7616 95.7454L69.3637 97.953L66.6547 98.6057Z" fill="#222222"/>
<path d="M63.9962 29.2298C72.7246 38.6106 77.5405 51.3018 73.7781 64.7453C73.7781 64.7453 72.6743 67.9558 72.3736 69.2603C72.1223 70.5644 72.1727 71.5673 72.1727 71.5673C72.5734 72.4209 73.8779 72.671 74.7314 72.4704C75.5831 71.6178 74.0787 70.5144 74.9314 69.461C79.1457 69.0595 82.6567 72.0195 85.8171 74.7782C83.0586 78.1403 78.8947 81.3491 74.6307 80.2966C74.0293 79.4438 75.9847 78.3402 74.6812 77.4875L43.6298 77.4363C42.7268 77.4875 41.0717 80.1465 40.1183 80.3976C38.7641 80.6981 36.5066 80.6469 35.9047 80.2967C34.6001 78.9911 34.2994 76.8863 33.4469 75.3801C32.5938 73.5246 28.7311 71.618 29.3834 70.2135C29.6844 69.7119 37.1089 68.6083 41.8743 70.3134C43.6798 71.1165 45.5363 72.7717 47.4423 72.2696C47.5422 72.2196 47.6931 72.1698 47.7934 71.9191C48.2949 66.0997 44.0814 59.6789 37.911 56.7195C36.105 55.8664 34.8013 55.6657 33.0453 55.8164C31.1892 55.9162 29.2329 56.117 27.9792 55.2147C26.9254 54.412 27.1262 51.7029 27.9287 49.0443C28.3298 47.8406 28.8818 46.536 29.4336 45.4832C31.942 39.9647 39.8678 45.8338 40.9208 46.3858C42.2757 47.088 43.6798 48.5928 44.0814 46.6366C43.9809 45.3825 41.5231 44.1787 39.9179 43.3258C35.2024 40.8179 32.1927 41.4198 33.6975 38.5602C34.149 37.7078 35.6535 35.7514 37.7106 33.9954C39.8174 32.1394 42.4755 30.3836 44.4324 30.1331C47.9437 29.7821 51.7059 34.748 51.7059 34.748L56.1708 39.7142C57.0238 40.2156 57.5249 39.6638 57.6251 39.3131C57.876 38.5604 57.1741 37.7573 57.1741 37.7573C57.1741 37.7573 55.1174 35.2495 54.0136 34.1462C52.9607 33.0424 49.8503 30.0831 49.8503 30.0831C48.6461 27.9763 50.9036 27.324 52.1572 27.1229C56.2206 26.7214 60.6846 25.6182 63.9962 29.2298Z" fill="#919191"/>
<path d="M64.096 69.9116C66.7043 69.9116 68.812 67.8048 68.812 65.1962C68.812 62.5877 66.7043 60.4309 64.096 60.4309C61.4879 60.4309 59.3812 62.5876 59.3812 65.1962C59.3811 67.805 61.4879 69.9116 64.096 69.9116ZM37.0582 18.3935C39.4661 19.8988 42.4755 20.9017 44.8839 22.6078L40.7703 24.5638L33.5472 20.8018L33.6475 13.127L37.3595 11.17C37.76 13.2274 37.1086 16.1363 37.0582 18.3935ZM34.149 28.9285L26.6746 17.7416L29.7847 15.5344L37.309 26.5706L34.149 28.9285Z" fill="#222222"/>
</svg>
