<svg width="134" height="42" viewBox="0 0 134 42" fill="none" xmlns="http://www.w3.org/2000/svg">
<path d="M68.631 40.9837C69.3885 42.411 71.5914 42.006 71.9059 40.5711C72.812 41.8917 74.9101 41.2752 75.1102 39.886C75.9878 40.8426 77.7286 40.4596 78.1231 39.2209C78.1173 39.239 78.1288 39.2028 78.1231 39.2209C84.5804 36.5654 89.3064 31.7612 91.1549 26.0261C91.5473 25.8621 91.8903 25.5991 92.1506 25.2629C94.1478 25.7326 96.3793 26.6721 97.2016 24.4406C98.9643 24.9104 102.66 26.1405 103.779 23.1495C106.363 23.5021 110.121 23.7365 110.592 21.0352C112.823 21.0352 116.698 20.6826 116.698 18.0986C118.931 18.0986 122.806 16.5712 122.336 14.8094C124.333 14.575 127.036 12.4607 127.036 11.0514C129.032 10.4645 131.264 8.9371 130.794 6.94092C131.968 6.23583 133.965 5.41354 133.965 4.23965C133.965 3.06576 133.025 2.12532 131.968 2.12532C130.91 2.12532 126.917 2.36734 125.507 2.36734C124.099 2.36734 107.067 2.13199 103.074 2.36734C99.0806 2.60173 94.0296 2.71226 91.5627 2.47786C89.7457 2.30254 83.5552 1.94809 79.8382 2.94189C71.9659 -0.958996 62.065 -0.959948 54.1908 2.94189C50.4748 1.94904 44.2833 2.3035 42.4653 2.47596C39.9984 2.71131 34.9484 2.59983 30.9541 2.36543C26.9608 2.13008 9.92899 2.36543 8.51975 2.36543C7.11051 2.36543 3.1172 2.12341 2.05956 2.12341C1.00192 2.12341 0.0643311 3.06385 0.0643311 4.23774C0.0643311 5.41258 2.06146 6.23487 3.2363 6.93902C2.76561 8.93615 4.99809 10.4626 6.99427 11.0495C6.99427 12.4588 9.69554 14.5731 11.6927 14.8075C11.2229 16.5702 15.099 18.0967 17.3306 18.0967C17.3306 20.6798 21.2067 21.0333 23.4382 21.0333C23.908 23.7346 27.6669 23.5002 30.251 23.1476C31.3696 26.1395 35.0666 24.9094 36.8283 24.4387C37.6506 26.6712 39.8822 25.7307 41.8793 25.261C42.1518 25.6154 42.4948 25.8613 42.875 26.0242C44.7235 31.7603 49.4505 36.5644 55.9069 39.22C55.9012 39.2019 55.9116 39.2381 55.9069 39.22C56.3013 40.4586 58.0422 40.8417 58.9197 39.885C59.1198 41.2743 61.218 41.8898 62.1241 40.5701C62.4376 42.0051 64.6415 42.41 65.398 40.9827C65.5781 42.3176 68.4509 42.3176 68.631 40.9837Z" fill="#919191"/>
<path d="M46.6949 25.7328C47.3857 27.3116 49.5686 26.9829 50.8759 26.4903C52.6196 29.143 55.52 31.3021 59.0912 32.6065L56.2546 37.4145C50.7406 35.0124 46.6587 30.9915 44.8597 26.2568C45.4965 26.1864 46.1169 26.0092 46.6949 25.7328Z" fill="#222222"/>
<path d="M55.844 38.6627C49.7564 36.0919 45.2819 31.5946 43.4286 26.2034C43.7345 26.2701 44.0518 26.2959 44.3691 26.2901C46.1842 31.1944 50.3757 35.362 56.0451 37.8365C55.9309 38.0983 55.8629 38.3778 55.844 38.6627ZM59.0293 38.8065C59.0285 38.8094 59.0276 38.8123 59.0265 38.8151C58.1241 41.0352 55.4476 39.7508 56.6587 37.6546L59.5429 32.7665C60.0717 32.9457 60.6139 33.1057 61.1684 33.2487C61.1799 33.3239 59.0608 38.7055 59.0293 38.8065ZM62.0793 39.4973C61.521 41.7184 58.8435 41.0409 59.4733 38.9618L61.7659 33.3916C62.3109 33.5155 62.8664 33.6203 63.4314 33.7051C63.4371 33.726 62.0793 39.4973 62.0793 39.4973ZM65.2227 39.848C65.0236 42.2377 62.0898 41.8232 62.6158 39.443C62.6158 39.4449 63.9259 33.788 63.9307 33.7756C64.4814 33.8451 65.0398 33.8985 65.6067 33.9309C65.6267 33.9823 65.2246 39.8003 65.2227 39.848ZM65.7334 39.8118C65.7334 39.8127 66.046 34.0271 66.0507 34.0128C66.5996 34.0357 67.4104 34.0519 67.9755 33.9947C68.0021 34.0443 68.3661 39.7517 68.3718 39.7984C68.5491 42.1376 65.5934 42.1853 65.7334 39.8118ZM1.9967 3.52892C2.25968 3.32788 2.82566 3.33836 3.54124 3.29834C7.18201 3.29834 15.6393 3.53369 17.2839 3.53369C18.9285 3.53369 30.5568 4.82573 32.3767 5.41362C33.199 5.64897 33.3753 6.47031 32.3767 6.52939C31.3782 6.58846 18.9647 6.76569 17.2029 6.76569C15.8366 6.76569 8.7294 6.74187 4.62175 5.9272C2.39975 5.48604 1.20681 4.13111 1.9967 3.52892ZM5.99573 7.8786C8.11006 7.93767 18.6808 7.99675 19.9147 7.93767C21.1476 7.8786 30.7207 7.35073 31.8365 7.29165C34.25 7.16493 35.0313 8.23972 32.4825 8.81904C31.1905 9.11347 19.2687 10.4636 10.2244 10.2874C8.52073 10.3464 6.23108 9.46506 5.64318 8.64277C5.05624 7.82047 5.70226 7.8786 5.99573 7.8786ZM10.1072 11.7557C11.5755 11.7557 28.8999 10.4636 32.5416 9.70041C35.7088 9.21828 34.9942 10.8457 33.7155 11.1096C32.6407 11.3317 19.7965 13.8109 13.2782 13.9281C11.1048 13.87 8.57981 11.8138 10.1072 11.7557ZM14.5112 15.3964C16.5674 15.1611 30.251 12.9886 33.9508 11.9901C37.2972 11.123 36.6216 13.3469 35.4191 13.6937C34.3482 14.0024 22.6865 16.8409 20.0319 16.9829C18.9063 17.0421 17.7777 16.966 16.6703 16.7561C12.9199 16.0062 14.5112 15.3964 14.5112 15.3964ZM20.0319 18.4503C21.5002 18.1568 33.422 15.4546 36.8284 14.1635C38.4882 13.5851 38.9875 15.2154 37.9441 15.6899C37.2981 15.9834 28.1367 19.8004 23.7908 20.0358C22.2053 20.0358 19.2725 19.182 20.0319 18.4503ZM39.4706 15.9834C38.1204 16.6294 29.8984 20.0948 26.7265 20.7999C26.2863 20.9171 25.8213 21.1115 25.8584 21.3564C26.1405 23.2316 31.9775 21.6365 32.3825 21.5069C34.6273 20.7875 39.2038 19.1077 41.1447 17.2163C40.6749 16.9819 39.5887 16.2187 39.4706 15.9834ZM41.9375 17.9805C41.057 18.5675 35.301 21.5641 32.6588 22.3854C31.2781 22.8457 32.7312 24.2654 35.4277 23.4964C38.4082 23.0343 42.7597 19.5079 43.4648 18.8619C43.1123 18.6856 42.3491 18.2159 41.9375 17.9805ZM44.6397 19.567C43.5754 20.2949 41.5268 21.6556 40.2262 22.5236C39.6897 22.8819 38.4091 23.5898 38.4368 24.1558C38.4501 24.4264 38.9646 24.94 41.3153 24.0862C42.7769 23.4879 44.5463 22.2711 46.0489 20.0958C45.7554 20.0062 44.9913 19.7423 44.6397 19.567ZM47.2819 20.4474C46.7311 20.9981 46.0194 21.7509 45.3229 22.4445C44.6816 23.2716 43.2524 23.8671 43.744 24.8228C44.2766 25.8576 45.9536 24.3683 46.5577 23.7985C47.4115 22.9914 48.2357 21.9252 48.5453 20.8581C48.1337 20.7409 47.664 20.6237 47.2819 20.4474Z" fill="#222222"/>
<path d="M26.8445 3.06394C28.3719 3.06394 33.5391 3.41649 35.4191 3.41649C40.8197 3.41649 48.1279 2.46366 53.1512 3.49557C56.2737 4.13683 56.7215 5.04106 56.7215 6.01295C56.7215 7.27736 55.6648 8.03676 54.9159 8.5856C54.0355 9.23161 51.3332 10.8171 51.216 14.9286C50.5119 14.6351 49.5133 14.4588 50.2184 12.9905C51.4485 10.5294 54.2146 7.53176 49.4838 6.25497C48.7377 6.05392 47.8182 5.92243 46.6949 5.88432C43.2304 5.76712 38.2061 5.7414 36.5024 5.44792C34.7997 5.15445 28.371 3.65279 27.0208 3.47747C26.4329 3.41554 26.4329 3.12206 26.8445 3.06394Z" fill="#222222"/>
<path d="M40.4214 6.63503C41.6544 6.63503 45.4305 6.60931 46.6968 6.66934C50.1994 6.83608 52.7006 8.5426 50.1708 11.7451C49.6753 12.3711 48.3509 13.6831 47.8221 14.1529C47.3523 14.5054 46.471 13.9175 47.2342 13.0371C46.2356 13.624 45.0026 13.5068 45.5896 12.1567C44.7082 12.8618 43.2409 12.9199 44.1213 11.1C43.5343 11.5697 41.8897 11.5116 42.9464 10.1014C42.066 10.3949 41.0675 9.86608 41.7135 8.98567C40.5977 9.16289 39.9517 8.33965 41.1265 7.69458C40.0108 7.9852 39.7173 6.69316 40.4214 6.63503ZM36.976 6.01093C36.5005 5.98044 34.4377 5.64504 34.4872 6.757C34.5368 7.8699 36.8283 7.4497 37.299 7.36204C38.1661 7.20102 38.8588 6.93613 38.8388 6.57691C38.8188 6.20817 37.9155 6.07001 36.976 6.01093ZM37.0598 7.91754C36.5587 7.95566 34.7569 7.86704 35.0379 8.88467C35.1266 9.20482 35.7888 9.85274 38.0041 9.31439C38.975 9.07809 39.4781 8.55785 39.4781 8.14432C39.4781 7.7832 38.1728 7.83274 37.0598 7.91754ZM38.4824 9.56975C38.1261 9.62883 36.0603 9.76985 36.4062 10.8113C36.6482 11.5373 37.0198 11.3077 37.6497 11.383C38.0651 11.4325 41.1427 10.5655 40.6615 9.57833C40.5186 9.28486 39.6134 9.38395 38.4824 9.56975ZM39.5039 11.0457C37.4553 11.8775 37.482 12.4406 37.5753 12.7446C37.6678 13.0495 38.6072 13.4259 40.551 12.4759C41.5353 11.9947 41.5477 11.4478 41.3057 11.0609C41.0036 10.5759 40.2394 10.7465 39.5039 11.0457ZM40.9379 12.4444C38.8054 13.1876 38.9274 13.8661 39.096 14.2643C39.2819 14.7046 39.9555 15.1733 41.7354 14.0395C42.8102 13.3553 43.5096 12.7817 43.318 12.3263C43.1446 11.9128 42.128 12.0204 40.9379 12.4444ZM41.7725 14.5807C41.2132 14.9199 40.9588 15.3792 41.3114 15.9023C41.9422 16.8398 43.8021 15.1857 44.269 14.6798C44.6158 14.3044 44.8378 13.9099 44.6415 13.6212C44.4386 13.3239 43.8078 13.3468 41.7725 14.5807ZM45.1399 14.7398C42.6568 16.0061 42.895 16.6197 43.2409 16.8818C43.6229 17.1714 44.5234 17.4754 46.0288 15.7355C46.6892 14.9733 46.3261 14.1386 45.1399 14.7398ZM46.3795 16.0681C45.8554 16.654 44.6272 17.5373 45.5782 18.1957C46.3795 18.7503 46.8492 18.1414 47.2437 17.7641C49.5248 15.5697 48.7701 14.1805 46.3795 16.0681Z" fill="#222222"/>
<path d="M53.8726 4.56544C55.6163 5.43728 56.3376 6.36343 54.5472 7.62879C54.328 7.78315 54.5986 8.16714 54.8178 8.01278C56.7883 6.62165 56.3642 5.17811 54.0832 4.14525C53.8431 4.02519 53.6334 4.44539 53.8726 4.56544Z" fill="#919191"/>
<path d="M77.8058 24.4446C77.8058 22.5713 75.8763 20.698 73.7334 20.052C73.1608 19.9224 73.2513 19.4136 73.6972 19.2126C74.126 19.0182 76.6272 17.2745 76.5919 15.0783C76.5919 12.9468 74.0898 9.71667 66.8006 9.71667C62.5129 9.71667 58.9398 10.6857 56.7959 12.4951C57.2952 12.8829 57.8678 13.4642 57.8678 14.1102V25.9319C57.7964 26.6428 57.4391 27.224 56.8664 27.87C58.7911 29.2364 62.2375 30.5398 67.1856 30.5236C72.4738 30.3941 77.8058 28.8371 77.8058 24.4446Z" fill="#222222"/>
<path d="M67.1627 18.7541C69.4371 18.7541 71.2808 17.2815 71.2808 15.465C71.2808 13.6484 69.4371 12.1758 67.1627 12.1758C64.8883 12.1758 63.0446 13.6484 63.0446 15.465C63.0446 17.2815 64.8883 18.7541 67.1627 18.7541Z" fill="#919191"/>
<path d="M67.6934 27.8519C70.243 27.8519 72.3098 26.2974 72.3098 24.3798C72.3098 22.4622 70.243 20.9077 67.6934 20.9077C65.1438 20.9077 63.0769 22.4622 63.0769 24.3798C63.0769 26.2974 65.1438 27.8519 67.6934 27.8519Z" fill="#919191"/>
<path d="M49.2723 18.7074C49.4333 17.9061 49.6915 17.1276 50.0364 16.3796C50.0164 16.3501 49.4057 15.5688 47.9011 17.7431C47.0703 18.9428 48.5376 19.4258 49.2723 18.7074ZM49.2237 22.4006C48.6043 23.12 48.0202 23.7241 47.6343 24.2062C46.8282 25.2143 48.9254 26.4568 50.0555 25.0237C49.6639 24.1898 49.3842 23.3078 49.2237 22.4006ZM78.1287 3.60885C78.4611 3.4206 78.8108 3.26489 79.173 3.14387C71.6533 -0.400659 62.3756 -0.400659 54.8568 3.14387C55.2475 3.27917 55.5981 3.43353 55.9001 3.60885C62.8634 0.575992 71.2264 0.602672 78.1287 3.60885Z" fill="#222222"/>
<path d="M81.5905 12.9342C80.7463 9.9976 78.6386 8.80275 77.8211 8.23105C76.1774 7.08289 76.267 5.3859 77.6715 3.92331C70.9607 1.09435 62.9903 1.12675 56.3586 3.92331C57.763 5.3859 57.8517 7.08289 56.209 8.23105C55.3914 8.80275 53.2828 9.9976 52.4396 12.9342C59.6077 5.54693 74.4223 5.54598 81.5905 12.9342ZM87.3351 25.7326C86.6433 27.3115 84.4604 26.9828 83.1541 26.4901C81.4104 29.1428 78.51 31.3019 74.9378 32.6064L77.7753 37.4143C83.2894 35.0123 87.3703 30.9913 89.1712 26.2567C88.534 26.1865 87.9133 26.0093 87.3351 25.7326Z" fill="#222222"/>
<path d="M78.1859 38.6627C84.2736 36.0919 88.749 31.5945 90.6013 26.2034C90.2923 26.2687 89.9767 26.2978 89.6609 26.2901C87.8457 31.1944 83.6542 35.362 77.9849 37.8365C78.099 38.0983 78.167 38.3778 78.1859 38.6627ZM74.9997 38.8065L75.0035 38.8151C75.9058 41.0352 78.5823 39.7508 77.3713 37.6546L74.4871 32.7665C73.9582 32.9457 73.417 33.1057 72.8615 33.2487C72.8501 33.3239 74.9692 38.7055 74.9997 38.8065ZM71.9497 39.4973C72.509 41.7184 75.1855 41.0409 74.5557 38.9618C74.5557 38.9618 72.3832 33.6803 72.2632 33.3916C71.7191 33.5155 71.1636 33.6203 70.5986 33.7051C70.5928 33.726 71.9497 39.4973 71.9497 39.4973ZM68.8072 39.848C69.0064 42.2377 71.9392 41.8232 71.4132 39.443C71.4142 39.4449 70.104 33.788 70.0983 33.7756C69.5476 33.8451 68.9883 33.8985 68.4223 33.9309C68.4032 33.9823 68.8053 39.8003 68.8072 39.848ZM132.033 3.52892C131.77 3.32788 131.204 3.33836 130.489 3.29834C126.848 3.29834 118.391 3.53369 116.746 3.53369C115.101 3.53369 103.473 4.82573 101.653 5.41362C100.831 5.64897 100.655 6.47031 101.653 6.52939C102.652 6.58846 115.064 6.76569 116.826 6.76569C118.193 6.76569 125.301 6.74187 129.407 5.9272C131.631 5.48604 132.824 4.13111 132.033 3.52892ZM128.033 7.8786C125.919 7.93767 115.349 7.99675 114.115 7.93767C112.882 7.8786 103.309 7.35073 102.193 7.29165C99.7799 7.16493 98.9977 8.23972 101.547 8.81904C102.839 9.11347 114.761 10.4636 123.805 10.2874C125.507 10.3464 127.798 9.46506 128.386 8.64277C128.974 7.82047 128.328 7.8786 128.033 7.8786ZM123.923 11.7557C122.454 11.7557 105.13 10.4636 101.488 9.70041C98.3212 9.21828 99.0358 10.8457 100.314 11.1096C101.389 11.3317 114.232 13.8109 120.752 13.9281C122.924 13.87 125.449 11.8138 123.923 11.7557ZM119.519 15.3964C117.464 15.1611 103.779 12.9886 100.08 11.9901C96.7337 11.123 97.4083 13.3469 98.6118 13.6937C99.6818 14.0024 111.343 16.8409 113.998 16.9829C115.124 17.0421 116.252 16.966 117.36 16.7561C121.11 16.0062 119.519 15.3964 119.519 15.3964ZM113.998 18.4503C112.53 18.1568 100.608 15.4546 97.2016 14.1635C95.5427 13.5851 95.0425 15.2154 96.0858 15.6899C96.7318 15.9834 105.893 19.8004 110.239 20.0358C111.825 20.0358 114.757 19.182 113.998 18.4503ZM94.5584 15.9834C95.9086 16.6294 104.132 20.0948 107.303 20.7999C107.743 20.9171 108.208 21.1115 108.171 21.3564C107.889 23.2316 102.051 21.6365 101.647 21.5069C99.4026 20.7875 94.8252 19.1077 92.8843 17.2163C93.355 16.9819 94.4412 16.2187 94.5584 15.9834ZM92.0916 17.9805C92.972 18.5675 98.728 21.5641 101.37 22.3854C102.751 22.8457 101.298 24.2654 98.6013 23.4964C95.6208 23.0343 91.2693 19.5079 90.5642 18.8619C90.9177 18.6856 91.6809 18.2159 92.0916 17.9805ZM89.3912 19.567C90.4546 20.2949 92.5041 21.6556 93.8047 22.5236C94.3412 22.8819 95.6218 23.5898 95.5942 24.1558C95.5808 24.4264 95.0663 24.94 92.7157 24.0862C91.254 23.4879 89.4846 22.2711 87.982 20.0958C88.2745 20.0062 89.0377 19.7423 89.3912 19.567ZM86.7471 20.4474C87.2979 20.9981 88.0106 21.7509 88.7071 22.4445C89.3493 23.2716 90.7786 23.8671 90.2859 24.8228C89.7533 25.8576 88.0763 24.3683 87.4732 23.7985C86.6194 22.9914 85.7943 21.9252 85.4846 20.8581C85.8963 20.7409 86.366 20.6237 86.7471 20.4474Z" fill="#222222"/>
<path d="M107.185 3.06394C105.658 3.06394 100.491 3.41649 98.6108 3.41649C93.2092 3.41649 85.901 2.46366 80.8786 3.49557C77.7562 4.13683 77.3083 5.04106 77.3083 6.01295C77.3083 7.27736 78.3641 8.03676 79.113 8.5856C79.9944 9.23161 82.6966 10.8171 82.8138 14.9286C83.5179 14.6351 84.5165 14.4588 83.8124 12.9905C82.5813 10.5294 79.8162 7.53176 84.547 6.25497C85.2931 6.05392 86.2126 5.92243 87.3369 5.88432C90.8014 5.76712 95.8257 5.7414 97.5284 5.44792C99.2311 5.15445 105.66 3.65279 107.01 3.47747C107.597 3.41554 107.597 3.12206 107.185 3.06394Z" fill="#222222"/>
<path d="M93.6075 6.63503C92.3745 6.63503 88.5984 6.60931 87.3321 6.66934C83.8295 6.83608 81.3283 8.5426 83.8581 11.7451C84.3536 12.3711 85.678 13.6831 86.2068 14.1529C86.6766 14.5054 87.5579 13.9175 86.7938 13.0371C87.7933 13.624 89.0262 13.5068 88.4393 12.1567C89.3197 12.8618 90.788 12.9199 89.9076 11.1C90.4946 11.5697 92.1391 11.5116 91.0815 10.1014C91.9629 10.3949 92.9614 9.86608 92.3145 8.98567C93.4312 9.16289 94.0772 8.33965 92.9014 7.69458C94.0191 7.9852 94.3126 6.69316 93.6075 6.63503ZM97.0538 6.01093C97.5293 5.98044 99.5922 5.64504 99.5426 6.757C99.4931 7.8699 97.2015 7.4497 96.7308 7.36204C95.8638 7.20102 95.171 6.93613 95.1911 6.57691C95.2111 6.20817 96.1144 6.07001 97.0538 6.01093ZM96.971 7.91754C97.4712 7.95566 99.2739 7.86704 98.9919 8.88467C98.9033 9.20482 98.242 9.85274 96.0267 9.31439C95.0548 9.07809 94.5527 8.55785 94.5527 8.14432C94.5527 7.7832 95.8571 7.83274 96.971 7.91754ZM95.5465 9.56975C95.9028 9.62883 97.9686 9.76985 97.6227 10.8113C97.3807 11.5373 97.0091 11.3077 96.3792 11.383C95.9638 11.4325 92.8862 10.5655 93.3673 9.57833C93.5112 9.28486 94.4164 9.38395 95.5465 9.56975ZM94.526 11.0457C96.5736 11.8775 96.5469 12.4406 96.4545 12.7446C96.3611 13.0495 95.4226 13.4259 93.4788 12.4759C92.4946 11.9947 92.4812 11.4478 92.7232 11.0609C93.0262 10.5759 93.7904 10.7465 94.526 11.0457ZM93.091 12.4444C95.2235 13.1876 95.1015 13.8661 94.9328 14.2643C94.747 14.7046 94.0734 15.1733 92.2925 14.0395C91.2178 13.3553 90.5184 12.7817 90.7109 12.3263C90.8852 11.9128 91.9009 12.0204 93.091 12.4444ZM92.2563 14.5807C92.8157 14.9199 93.0701 15.3792 92.7175 15.9023C92.0877 16.8398 90.2268 15.1857 89.7599 14.6798C89.4141 14.3044 89.1911 13.9099 89.3874 13.6212C89.5903 13.3239 90.222 13.3468 92.2563 14.5807ZM88.89 14.7398C91.3731 16.0061 91.1349 16.6197 90.789 16.8818C90.4069 17.1714 89.5065 17.4754 88.001 15.7355C87.3407 14.9733 87.7037 14.1386 88.89 14.7398ZM87.6494 16.0681C88.1735 16.654 89.4017 17.5373 88.4517 18.1957C87.6494 18.7503 87.1797 18.1414 86.7861 17.7641C84.5051 15.5697 85.2597 14.1805 87.6494 16.0681Z" fill="#222222"/>
<path d="M80.1574 4.56544C78.4137 5.43728 77.6924 6.36343 79.4838 7.62879C79.702 7.78315 79.4314 8.16714 79.2122 8.01278C77.2427 6.62165 77.6667 5.17811 79.9478 4.14525C80.1869 4.02519 80.3966 4.44539 80.1574 4.56544Z" fill="#919191"/>
<path d="M84.7576 18.7077C84.5956 17.9063 84.3383 17.1279 83.9925 16.3799C84.0125 16.3504 84.6232 15.5691 86.1278 17.7434C86.9596 18.943 85.4922 19.4261 84.7576 18.7077ZM84.8052 22.4008C85.4246 23.1202 86.0096 23.7243 86.3955 24.2065C87.2016 25.2146 85.1044 26.457 83.9744 25.024C84.366 24.1845 84.648 23.306 84.8052 22.4008Z" fill="#222222"/>
</svg>
