<svg width="269" height="20" viewBox="0 0 269 20" fill="none" xmlns="http://www.w3.org/2000/svg">
<path d="M191.118 4.38098H162.989C162.329 4.38098 162.09 5.01508 162.09 5.57141V14.6935C162.09 15.2498 162.435 15.6173 162.989 15.6173H191.118V19.3712H162.989C159.922 19.3712 157.837 17.2568 157.836 14.1632V6.12805C157.836 2.58572 159.341 0.629028 162.989 0.629028L191.118 0.627075V4.38098ZM30.729 0.627075C33.663 0.627075 34.933 3.42916 34.9331 6.01965V8.18762C34.9331 11.4654 32.976 13.8468 29.5659 13.8468H4.31982V19.3702H0.0356445V0.627075H30.729ZM69.3267 0.626099C72.2076 0.626099 74.2963 2.39716 74.2964 5.35852V14.6388C74.2964 17.6017 72.2077 19.3702 69.3267 19.3702H44.2905C41.4095 19.3702 39.3208 17.6017 39.3208 14.6388V5.35852C39.3209 2.39716 41.4096 0.626099 44.2905 0.626099H69.3267ZM109.748 0.627075C111.941 0.627164 113.951 2.08096 113.951 4.38098V9.24622C113.951 11.2819 112.364 12.3646 110.567 12.8419C113.157 14.0582 113.686 16.7538 113.951 19.3702H109.748C109.562 16.5424 108.346 13.8468 105.095 13.8468H83.2056V19.3702H78.9233V0.627075H109.748ZM152.731 4.38098H124.235C123.098 4.38098 122.622 5.20049 122.622 6.2843C122.622 7.31509 123.151 8.10852 124.235 8.10852H147.472C151.279 8.10852 153.34 9.93353 153.34 13.8195C153.34 17.0712 151.597 19.3702 148.214 19.3702H119.001V15.6163H147.474C148.451 15.6161 148.875 14.771 148.875 13.8986C148.875 12.8966 148.666 11.8372 147.474 11.837H123.335C120.216 11.8368 118.42 9.43161 118.419 6.44446C118.419 2.71667 120.428 0.629029 124.236 0.629028L152.731 0.627075V4.38098ZM200.027 7.92395H224.905V0.627075H229.319V19.3702H224.905V11.6769H200.027V19.3702H195.716V0.627075H200.027V7.92395ZM269 4.38098H238.121V8.00403H269V11.7306H238.121V15.6163H269V19.3702H233.839V0.627075H269V4.38098ZM46.0894 4.38098C44.741 4.38098 43.6569 4.96346 43.6567 6.46985V13.5275C43.6567 15.0355 44.7667 15.6163 46.0894 15.6163H67.8198C69.141 15.6163 70.2251 15.0355 70.2251 13.5275V6.46985C70.2249 4.96346 69.1682 4.38098 67.8198 4.38098H46.0894ZM4.31982 10.0919H28.7466C29.8047 10.0919 30.729 9.66895 30.729 8.47864V6.36536C30.729 5.12324 29.9887 4.38293 28.7466 4.38293L4.31982 4.38098V10.0919ZM83.2056 4.38098V10.0919H108.691C109.536 10.0919 109.748 9.37717 109.748 8.66418V6.12512C109.748 4.90891 109.299 4.38 108.055 4.38L83.2056 4.38098Z" fill="#919191"/>
</svg>
