<svg width="36" height="24" viewBox="0 0 36 24" fill="none" xmlns="http://www.w3.org/2000/svg">
<path fill-rule="evenodd" clip-rule="evenodd" d="M2.66667 23.5H33.3333C34.3875 23.5 35.25 22.6375 35.25 21.5833C35.25 20.5292 34.3875 19.6667 33.3333 19.6667H2.66667C1.6125 19.6667 0.75 20.5292 0.75 21.5833C0.75 22.6375 1.6125 23.5 2.66667 23.5ZM2.66667 13.9167H33.3333C34.3875 13.9167 35.25 13.0542 35.25 12C35.25 10.9458 34.3875 10.0833 33.3333 10.0833H2.66667C1.6125 10.0833 0.75 10.9458 0.75 12C0.75 13.0542 1.6125 13.9167 2.66667 13.9167ZM0.75 2.41667C0.75 3.47083 1.6125 4.33333 2.66667 4.33333H33.3333C34.3875 4.33333 35.25 3.47083 35.25 2.41667C35.25 1.3625 34.3875 0.5 33.3333 0.5H2.66667C1.6125 0.5 0.75 1.3625 0.75 2.41667Z" fill="white"/>
</svg>
